HIERARCHY
ROOT Hips
{
  OFFSET 0.000000 0.000000 0.000000
  CHANNELS 6 Xposition Yposition Zposition Xrotation Yrotation Zrotation
  JOINT Spine
  {
    OFFSET 0.000000 10.000000 0.000000
    CHANNELS 3 Xrotation Yrotation Zrotation
    JOINT Chest
    {
      OFFSET 0.000000 15.000000 0.000000
      CHANNELS 3 Xrotation Yrotation Zrotation
      JOINT Neck
      {
        OFFSET 0.000000 15.000000 0.000000
        CHANNELS 3 Xrotation Yrotation Zrotation
        JOINT Head
        {
          OFFSET 0.000000 10.000000 0.000000
          CHANNELS 3 Xrotation Yrotation Zrotation
          End Site
          {
            OFFSET 0.0 5.0 2.0
          }
        }
      }
      JOINT LeftShoulder
      {
        OFFSET 20.000000 5.000000 0.000000
        CHANNELS 3 Xrotation Yrotation Zrotation
        JOINT LeftArm
        {
          OFFSET 15.000000 0.000000 0.000000
          CHANNELS 3 Xrotation Yrotation Zrotation
          JOINT LeftForeArm
          {
            OFFSET 25.000000 0.000000 0.000000
            CHANNELS 3 Xrotation Yrotation Zrotation
            JOINT LeftHand
            {
              OFFSET 20.000000 0.000000 0.000000
              CHANNELS 3 Xrotation Yrotation Zrotation
              End Site
              {
                OFFSET -3.0 0.0 2.0
              }
            }
          }
        }
      }
      JOINT RightShoulder
      {
        OFFSET -20.000000 5.000000 0.000000
        CHANNELS 3 Xrotation Yrotation Zrotation
        JOINT RightArm
        {
          OFFSET -15.000000 0.000000 0.000000
          CHANNELS 3 Xrotation Yrotation Zrotation
          JOINT RightForeArm
          {
            OFFSET -25.000000 0.000000 0.000000
            CHANNELS 3 Xrotation Yrotation Zrotation
            JOINT RightHand
            {
              OFFSET -20.000000 0.000000 0.000000
              CHANNELS 3 Xrotation Yrotation Zrotation
              End Site
              {
                OFFSET 3.0 0.0 2.0
              }
            }
          }
        }
      }
    }
  }
  JOINT LeftUpLeg
  {
    OFFSET 10.000000 -10.000000 0.000000
    CHANNELS 3 Xrotation Yrotation Zrotation
    JOINT LeftLeg
    {
      OFFSET 0.000000 -45.000000 0.000000
      CHANNELS 3 Xrotation Yrotation Zrotation
      JOINT LeftFoot
      {
        OFFSET 0.000000 -45.000000 0.000000
        CHANNELS 3 Xrotation Yrotation Zrotation
        JOINT LeftToeBase
        {
          OFFSET 0.000000 0.000000 10.000000
          CHANNELS 3 Xrotation Yrotation Zrotation
          End Site
          {
            OFFSET 0.0 -1.0 3.0
          }
        }
      }
    }
  }
  JOINT RightUpLeg
  {
    OFFSET -10.000000 -10.000000 0.000000
    CHANNELS 3 Xrotation Yrotation Zrotation
    JOINT RightLeg
    {
      OFFSET 0.000000 -45.000000 0.000000
      CHANNELS 3 Xrotation Yrotation Zrotation
      JOINT RightFoot
      {
        OFFSET 0.000000 -45.000000 0.000000
        CHANNELS 3 Xrotation Yrotation Zrotation
        JOINT RightToeBase
        {
          OFFSET 0.000000 0.000000 10.000000
          CHANNELS 3 Xrotation Yrotation Zrotation
          End Site
          {
            OFFSET 0.0 -1.0 3.0
          }
        }
      }
    }
  }
}
MOTION
Frames: 16
Frame Time: 0.033333
0.175402 0.190895 1.847885 -3.896276 -3.876816 -89.728734 -42.147580 -28.412174 -66.659551 -42.147580 -28.412174 -66.659551 -64.145843 -14.585551 -23.091376 5.317451 -3.994425 73.786439 11.895977 -16.456896 -71.497766 4.089706 -4.544064 -83.965028 -28.238068 16.078761 -121.285367 -28.238068 16.078761 -121.285367 0.245690 0.272633 81.950026 -15.409264 -19.090543 77.614546 -113.497980 -50.561077 145.586471 -113.497980 -50.561077 145.586471 4.717915 0.013286 -0.318563 -36.278995 -0.253504 -0.774718 73.133784 -13.810566 -10.287384 38.474293 1.038983 0.302809 -1.096936 0.051135 4.777673 -46.905455 -2.014186 -4.626831 47.845911 0.622681 0.470780 35.758306 4.323586 1.789447
0.359312 0.194773 3.355254 -4.858545 -4.781749 -89.471257 -42.893886 -28.583578 -65.986096 -42.893886 -28.583578 -65.986096 -64.359397 -14.379428 -22.681856 6.169090 -4.619528 73.674171 11.358027 -15.781542 -71.238470 3.801359 -4.224003 -83.965567 -29.259359 16.535946 -121.702323 -29.259359 16.535946 -121.702323 0.110062 0.118130 81.636180 -15.892036 -19.671621 77.655550 -114.341200 -50.759675 145.964427 -114.341200 -50.759675 145.964427 4.456055 0.013454 -0.354385 -36.179787 -0.217067 -0.663829 72.183666 -13.647800 -9.996215 36.877684 1.432509 0.418671 -0.099224 -0.004142 4.910873 -43.659337 -1.878493 -4.681000 43.436253 0.190077 0.266109 31.178682 3.362931 1.340311
0.572768 0.199938 5.061025 -7.443297 -6.893529 -88.334908 -43.701098 -28.760369 -65.253808 -43.701098 -28.760369 -65.253808 -64.602119 -14.127804 -22.192167 7.029096 -5.244480 73.514164 10.743306 -15.008346 -70.921913 3.477529 -3.863812 -83.982220 -30.271643 16.946661 -122.222987 -30.271643 16.946661 -122.222987 -0.067298 -0.086460 81.359926 -16.411586 -20.325799 77.623764 -115.357851 -51.048640 146.386149 -115.357851 -51.048640 146.386149 4.123860 0.014629 -0.449003 -36.032513 -0.186836 -0.572820 71.084304 -13.166273 -9.473764 35.291765 2.127125 0.608741 1.409078 -0.085180 5.074978 -40.347049 -1.741310 -4.741028 39.253060 -0.299165 0.064873 26.843778 2.334832 0.921606
0.806752 0.206488 6.864337 -11.271933 -9.823587 -86.445519 -44.524873 -28.933563 -64.503243 -44.524873 -28.933563 -64.503243 -64.852642 -13.836935 -21.640648 7.844898 -5.829720 73.303337 10.126872 -14.245318 -70.540195 3.033835 -3.369165 -84.075348 -31.565891 17.391999 -123.031119 -31.565891 17.391999 -123.031119 -0.282600 -0.336645 81.120378 -16.940815 -21.004336 77.557736 -116.353150 -51.399235 146.751705 -116.353150 -51.399235 146.751705 3.769672 0.016941 -0.595776 -35.864192 -0.156703 -0.482105 69.746055 -12.550717 -8.837613 33.584160 2.942405 0.812290 4.052683 -0.225128 5.273152 -36.636235 -1.596773 -4.850314 35.032285 -0.810852 -0.112249 22.572069 1.299512 0.557543
1.106062 0.215529 9.131185 -16.515533 -13.749068 -83.756721 -45.570137 -29.152229 -63.550410 -45.570137 -29.152229 -63.550410 -65.159400 -13.449980 -20.918774 8.839823 -6.544082 73.052467 9.331910 -13.268414 -69.993405 2.235901 -2.487460 -84.315668 -34.148008 18.229777 -124.531252 -34.148008 18.229777 -124.531252 -0.584945 -0.687878 80.832517 -17.589947 -21.834840 77.482152 -117.340166 -51.765759 147.100652 -117.340166 -51.765759 147.100652 3.329979 0.020183 -0.797324 -35.680866 -0.120047 -0.371436 67.912544 -11.663872 -7.946597 31.350698 4.084602 1.096380 7.262749 -0.399862 5.551881 -32.310861 -1.436384 -5.002420 29.667320 -1.490427 -0.342080 17.071299 -0.009066 0.103412
1.399734 0.224742 11.247556 -22.659743 -18.044956 -80.323976 -46.276876 -29.283764 -62.898793 -46.276876 -29.283764 -62.898793 -65.399273 -13.097323 -20.282110 9.377915 -6.918776 72.822040 8.675154 -12.477398 -69.415807 1.170181 -1.328270 -84.806025 -37.875275 19.249742 -126.688021 -37.875275 19.249742 -126.688021 -0.782746 -0.921078 80.725772 -18.003281 -22.378980 77.386623 -118.065040 -52.017365 147.366228 -118.065040 -52.017365 147.366228 2.973022 0.024240 -1.030213 -35.462104 -0.116245 -0.363457 65.842091 -11.029345 -7.222148 29.432106 4.806846 1.224738 9.527902 -0.516598 5.891918 -28.738225 -1.304789 -5.146009 26.185893 -1.969636 -0.426720 13.684213 -0.947905 -0.063033
1.654350 0.232785 13.001458 -29.241226 -22.093944 -76.193315 -46.747821 -29.365922 -62.462149 -46.747821 -29.365922 -62.462149 -65.565693 -12.781237 -19.733571 9.708915 -7.154380 72.722280 8.098562 -11.781120 -68.810181 0.137772 -0.215742 -85.573922 -42.484733 20.310887 -129.454057 -42.484733 20.310887 -129.454057 -0.962572 -1.132570 80.691549 -18.318964 -22.774593 77.363338 -118.408028 -52.055385 147.545083 -118.408028 -52.055385 147.545083 2.668307 0.027814 -1.258302 -35.331395 -0.148321 -0.466319 63.524858 -10.697302 -6.646247 27.315339 5.291093 1.287895 9.748250 -0.515657 6.274520 -26.509418 -1.233618 -5.269039 23.835747 -2.444792 -0.493093 11.442881 -1.760153 -0.140391
1.891980 0.238714 14.670858 -35.526183 -25.334911 -71.753806 -47.004267 -29.409973 -62.224078 -47.004267 -29.409973 -62.224078 -65.642793 -12.513560 -19.295406 9.796727 -7.226323 72.769290 7.459170 -10.970229 -68.215926 -1.048623 1.031613 -86.640645 -47.984541 21.452623 -132.727044 -47.984541 21.452623 -132.727044 -1.056384 -1.242716 80.707274 -18.557085 -23.036266 77.436150 -118.558542 -51.919402 147.726468 -118.558542 -51.919402 147.726468 2.441429 0.030038 -1.443906 -35.282632 -0.213851 -0.672008 61.258570 -10.640602 -6.278758 25.037308 5.599783 1.267036 7.760737 -0.390320 6.688574 -25.510803 -1.207185 -5.339785 22.421036 -2.602637 -0.501873 9.934001 -2.068497 -0.158432
2.076729 0.242458 16.053336 -44.060259 -25.429950 -63.122235 -47.036992 -29.415451 -62.193635 -47.036992 -29.415451 -62.193635 -65.666610 -12.315137 -18.983159 9.668415 -7.155795 72.968215 6.838975 -10.160198 -67.645823 -2.445489 2.411847 -88.046351 -54.252178 22.671096 -136.250978 -54.252178 22.671096 -136.250978 -1.067461 -1.255244 80.759288 -18.731649 -23.178629 77.611099 -118.667287 -51.642604 147.977161 -118.667287 -51.642604 147.977161 2.117024 0.028504 -1.566623 -35.506867 -0.313053 -0.969071 59.729085 -10.628388 -6.056174 22.987481 6.016344 1.245939 3.283899 -0.127707 7.119240 -25.807721 -1.222273 -5.340910 21.886527 -2.326449 -0.434045 9.046759 -1.782868 -0.130770
2.277361 0.244500 17.705337 -52.907087 -23.736837 -53.221944 -46.945170 -29.401203 -62.279539 -46.945170 -29.401203 -62.279539 -65.634248 -12.169794 -18.772553 9.436364 -7.015389 73.227172 6.187490 -9.273176 -67.193955 -3.972121 3.851544 -89.690676 -60.175739 23.666395 -139.573446 -60.175739 23.666395 -139.573446 -0.989404 -1.162435 80.826477 -18.869761 -23.237354 77.883905 -118.931175 -51.358622 148.324771 -118.931175 -51.358622 148.324771 1.770642 0.024774 -1.616677 -35.916212 -0.423247 -1.290075 59.057793 -10.577003 -5.937300 21.525336 6.508681 1.255654 -1.290997 0.151841 7.543113 -26.614192 -1.258466 -5.324530 21.878995 -1.644551 -0.289239 8.605229 -0.940621 -0.057737
2.483496 0.245207 19.568668 -62.624128 -19.495862 -40.590630 -46.812006 -29.380672 -62.404177 -46.812006 -29.380672 -62.404177 -65.560431 -12.064667 -18.637897 9.159209 -6.840613 73.483695 5.496106 -8.303251 -66.824308 -5.790590 5.482056 -91.421730 -65.244183 24.368692 -142.365248 -65.244183 24.368692 -142.365248 -0.865921 -1.015790 80.943654 -19.015466 -23.287490 78.200152 -119.658016 -51.161891 148.888311 -119.658016 -51.161891 148.888311 1.331889 0.019028 -1.623635 -36.605642 -0.529313 -1.582941 59.642022 -9.814737 -5.512290 20.974843 7.697849 1.471330 -5.444162 0.412974 7.917955 -28.021225 -1.320047 -5.288710 22.437825 -0.713826 -0.105806 8.611340 0.265878 0.035696
2.638919 0.244942 21.056421 -72.317415 -14.615355 -27.677981 -46.620075 -29.350365 -62.583512 -46.620075 -29.350365 -62.583512 -65.387835 -12.039958 -18.662642 8.804318 -6.601467 73.701673 4.929618 -7.485948 -66.625931 -7.496943 6.959474 -93.004969 -68.537786 24.695448 -144.227331 -68.537786 24.695448 -144.227331 -0.762614 -0.891569 81.161770 -19.087061 -23.230830 78.563610 -120.585077 -51.045790 149.515046 -120.585077 -51.045790 149.515046 0.888911 0.012933 -1.607959 -37.445275 -0.614037 -1.800627 61.180160 -8.378278 -4.753719 21.527481 9.401288 1.900829 -8.317938 0.604977 8.203219 -29.392301 -1.385789 -5.277376 23.149790 0.266717 0.086852 8.847095 1.568936 0.135495
2.753763 0.242205 22.255678 -73.047538 -9.825975 -23.842667 -46.598569 -29.345897 -62.603147 -46.598569 -29.345897 -62.603147 -65.047621 -12.080778 -18.851284 8.426429 -6.334183 73.832184 4.520190 -6.880525 -66.555970 -8.614458 7.886892 -94.316868 -70.092862 24.705907 -145.256388 -70.092862 24.705907 -145.256388 -0.797998 -0.926583 81.416990 -19.061056 -23.060556 78.918218 -120.852566 -50.769616 149.860238 -120.852566 -50.769616 149.860238 2.595624 0.043154 -1.613344 -38.136539 -0.653388 -1.887701 63.401996 -6.735613 -3.953321 23.366119 10.972643 2.396521 -9.057574 0.664241 8.358703 -31.011655 -1.458497 -5.251135 24.048821 0.987361 0.222959 9.222675 2.609905 0.214443
2.817254 0.238651 22.967424 -67.108176 -5.966305 -27.327491 -46.650566 -29.352936 -62.554059 -46.650566 -29.352936 -62.554059 -64.643164 -12.171754 -19.141728 8.034377 -6.044560 73.872598 4.368888 -6.651192 -66.560779 -9.035923 8.213790 -95.210543 -69.813794 24.514384 -145.356829 -69.813794 24.514384 -145.356829 -0.973489 -1.122819 81.693245 -18.914831 -22.753317 79.257103 -120.547384 -50.341923 149.973388 -120.547384 -50.341923 149.973388 5.120873 0.082096 -1.605160 -38.685807 -0.653515 -1.862145 65.917855 -5.135199 -3.185342 25.853423 12.280754 2.905110 -8.778334 0.650456 8.460779 -31.843040 -1.464568 -5.126989 24.487211 1.164786 0.251691 9.429406 2.875940 0.233434
2.816429 0.234494 22.998890 -55.271378 -3.517842 -37.679363 -46.726360 -29.363930 -62.482820 -46.726360 -29.363930 -62.482820 -64.204865 -12.300268 -19.504421 7.571695 -5.696019 73.865413 4.508479 -6.860056 -66.587999 -8.232445 7.441942 -95.647172 -67.600065 24.022723 -144.588747 -67.600065 24.022723 -144.588747 -1.244439 -1.428051 81.967307 -18.636516 -22.293866 79.588159 -119.625954 -49.720429 149.858800 -119.625954 -49.720429 149.858800 7.906265 0.118175 -1.549320 -38.836900 -0.641610 -1.820029 67.627452 -4.084413 -2.678642 28.245484 12.829658 3.248329 -8.144308 0.611525 8.629494 -32.084749 -1.408196 -4.877413 24.482245 0.629966 0.142084 9.353191 2.146215 0.180353
2.768978 0.230353 22.481236 -36.976035 -1.843377 -54.010616 -46.857041 -29.384002 -62.360474 -46.857041 -29.384002 -62.360474 -63.782991 -12.414889 -19.840078 7.178147 -5.394636 73.809504 4.848245 -7.364692 -66.659550 -6.314740 5.681156 -95.646445 -63.493744 23.145536 -143.079003 -63.493744 23.145536 -143.079003 -1.583461 -1.811333 82.198254 -18.351675 -21.831147 79.915314 -118.363928 -49.024560 149.597527 -118.363928 -49.024560 149.597527 10.523706 0.121043 -1.158787 -38.609364 -0.657533 -1.881162 68.119357 -3.824122 -2.554868 29.872626 12.624290 3.362361 -7.271568 0.558531 8.942269 -31.861025 -1.289193 -4.469565 24.329024 -0.293659 -0.048733 9.270500 0.843474 0.082216
